<svg id="wave" style="transform:rotate(0deg); transition: 0.3s" viewBox="0 0 1440 130" version="1.1" xmlns="http://www.w3.org/2000/svg"><defs><linearGradient id="sw-gradient-0" x1="0" x2="0" y1="1" y2="0"><stop stop-color="rgba(61.674, 193.118, 250.767, 1)" offset="0%"></stop><stop stop-color="rgba(0, 142.706, 255, 1)" offset="100%"></stop></linearGradient></defs><path style="transform:translate(0, 0px); opacity:1" fill="url(#sw-gradient-0)" d="M0,91L60,82.3C120,74,240,56,360,60.7C480,65,600,91,720,84.5C840,78,960,39,1080,32.5C1200,26,1320,52,1440,56.3C1560,61,1680,43,1800,39C1920,35,2040,43,2160,45.5C2280,48,2400,43,2520,34.7C2640,26,2760,13,2880,15.2C3000,17,3120,35,3240,41.2C3360,48,3480,43,3600,45.5C3720,48,3840,56,3960,52C4080,48,4200,30,4320,39C4440,48,4560,82,4680,95.3C4800,108,4920,100,5040,95.3C5160,91,5280,91,5400,93.2C5520,95,5640,100,5760,84.5C5880,69,6000,35,6120,28.2C6240,22,6360,43,6480,49.8C6600,56,6720,48,6840,52C6960,56,7080,74,7200,84.5C7320,95,7440,100,7560,84.5C7680,69,7800,35,7920,32.5C8040,30,8160,61,8280,71.5C8400,82,8520,74,8580,69.3L8640,65L8640,130L8580,130C8520,130,8400,130,8280,130C8160,130,8040,130,7920,130C7800,130,7680,130,7560,130C7440,130,7320,130,7200,130C7080,130,6960,130,6840,130C6720,130,6600,130,6480,130C6360,130,6240,130,6120,130C6000,130,5880,130,5760,130C5640,130,5520,130,5400,130C5280,130,5160,130,5040,130C4920,130,4800,130,4680,130C4560,130,4440,130,4320,130C4200,130,4080,130,3960,130C3840,130,3720,130,3600,130C3480,130,3360,130,3240,130C3120,130,3000,130,2880,130C2760,130,2640,130,2520,130C2400,130,2280,130,2160,130C2040,130,1920,130,1800,130C1680,130,1560,130,1440,130C1320,130,1200,130,1080,130C960,130,840,130,720,130C600,130,480,130,360,130C240,130,120,130,60,130L0,130Z"></path></svg>